<svg xmlns="http://www.w3.org/2000/svg" width="1550" height="1498" viewBox="0 0 1550 1498" fill="none"><g clip-path="url(#clip0_6_23)"><path d="M1543.5 631.515C1486.46 914.008 1120.93 1250.81 1120.93 1250.81C1120.93 1250.81 906.749 1418.4 745.712 1477.26C584.675 1536.11 392.568 1463.36 286.299 1272.89C237.309 1185.09 215.351 1168.38 144.437 1044.13C73.523 919.877 23.4899 866.722 2.63693 775.877C-13.1131 603.889 46.78 490.584 46.78 490.584C46.78 490.584 274.926 123.336 600.505 30.9018C800.405 -25.8522 1170.04 -16.8452 1386.82 164.372C1523.63 278.737 1565.52 522.471 1543.5 631.515Z" fill="url(#paint0_linear_6_23)"></path></g><defs><linearGradient id="paint0_linear_6_23" x1="259" y1="773" x2="1828.15" y2="1501.59" gradientUnits="userSpaceOnUse"><stop stop-color="#0A3161"></stop><stop offset="1" stop-color="#135DB9"></stop></linearGradient><clipPath id="clip0_6_23"><rect width="1549.04" height="1497.15" fill="white"></rect></clipPath></defs></svg>